inDegrees=no
num_controls=7
num_derivatives=13
num_iterations=135
num_multipliers=7
num_parameters=0
num_slacks=7
num_states=26
objective=5.086985
objective_accelerations=0.329860
objective_balance=0.026697
objective_effort=0.164362
objective_height=4.457564
objective_ligament=0.108501
solver_duration=1497.121906
status=Solve_Succeeded
success=true
DataType=double
version=3
OpenSimVersion=4.4-2022-07-23-0e9fedc
endheader
time	/jointset/ground_pelvis/pelvis_tilt/value	/jointset/ground_pelvis/pelvis_tx/value	/jointset/ground_pelvis/pelvis_ty/value	/jointset/hip_l/hip_flexion_l/value	/jointset/hip_l/hip_adduction_l/value	/jointset/hip_l/hip_rotation_l/value	/jointset/back/lumbar_extension/value	/jointset/patellofemoral_l/patellar_flexion_l/value	/jointset/knee_l/knee_flexion_l/value	/jointset/knee_l/knee_adduction_l/value	/jointset/knee_l/knee_rotation_l/value	/jointset/ankle_l/ankle_angle_l/value	/jointset/subtalar_l/subtalar_angle_l/value	/jointset/ground_pelvis/pelvis_tilt/speed	/jointset/ground_pelvis/pelvis_tx/speed	/jointset/ground_pelvis/pelvis_ty/speed	/jointset/hip_l/hip_flexion_l/speed	/jointset/hip_l/hip_adduction_l/speed	/jointset/hip_l/hip_rotation_l/speed	/jointset/back/lumbar_extension/speed	/jointset/patellofemoral_l/patellar_flexion_l/speed	/jointset/knee_l/knee_flexion_l/speed	/jointset/knee_l/knee_adduction_l/speed	/jointset/knee_l/knee_rotation_l/speed	/jointset/ankle_l/ankle_angle_l/speed	/jointset/subtalar_l/subtalar_angle_l/speed	/forceset/tau_hip_flexion_l	/forceset/tau_hip_adduction_l	/forceset/tau_hip_rotation_l	/forceset/tau_knee_flexion_l	/forceset/tau_ankle_angle_l	/forceset/tau_subtalar_angle_l	/forceset/tau_lumbar_extension	lambda_cid13_p0	lambda_cid13_p1	lambda_cid13_p2	lambda_cid13_p3	lambda_cid13_p4	lambda_cid13_p5	lambda_cid14_p0	/jointset/ground_pelvis/pelvis_tilt/accel	/jointset/ground_pelvis/pelvis_tx/accel	/jointset/ground_pelvis/pelvis_ty/accel	/jointset/hip_l/hip_flexion_l/accel	/jointset/hip_l/hip_adduction_l/accel	/jointset/hip_l/hip_rotation_l/accel	/jointset/back/lumbar_extension/accel	/jointset/patellofemoral_l/patellar_flexion_l/accel	/jointset/knee_l/knee_flexion_l/accel	/jointset/knee_l/knee_adduction_l/accel	/jointset/knee_l/knee_rotation_l/accel	/jointset/ankle_l/ankle_angle_l/accel	/jointset/subtalar_l/subtalar_angle_l/accel	gamma_cid13_p0	gamma_cid13_p1	gamma_cid13_p2	gamma_cid13_p3	gamma_cid13_p4	gamma_cid13_p5	gamma_cid14_p0
0	-0.04582207489530835	0.07170194907447335	0.8962084946048762	0.1955292361009247	-0.3192152613034687	-0.5376020408748178	-0.137903700187828	0.07015350928391616	0.07015350928391206	-0.1745329251994329	-0.1693765031563683	-0.06701017130107029	0.007427355596073304	0	0	0	0	0	0	0	0	0	0	0	0	0	0.08022412328717807	-0.1147084209861427	-0.03981767242328339	-0.2429560413337081	0.2394299327861981	-0.01027849675043468	-0.02187402295362202	41.3939002325474	-7.548501279231409	6.309931294515594	-33.82562241019263	-524.4603139190966	-87.43481072333651	-41.41117956550342	-0.9968242368069108	-0.1732396153999708	-0.5067795200572366	5.452706185706104	-1.988002734531779	2.869606256702252	-2.176268371928011	8.16905141128866	8.169051411291887	0.431295484748982	-0.2393650355588706	3.708727243032687	-0.1498363490180294	-3.275464053497283e-08	7.594884562258439e-08	8.529585128405864e-08	8.603930573399316e-09	-4.147415493476954e-09	-5.718196272265105e-08	-4.884583864684561e-09
0.01	-0.04586728996985522	0.07169473618597509	0.8961840727433121	0.1957890927994476	-0.3193129295305834	-0.5374574233303684	-0.138015372089547	0.07055057451046684	0.07055057451048023	-0.1745136477473493	-0.1693829790206854	-0.06682804643001372	0.007419911530641423	-0.009027005301232948	-0.001319577269478368	-0.004861533084499954	0.05160912544450642	-0.01944215095918355	0.02879977761808004	-0.02215521433548194	0.07903686075147594	0.07903686075148723	0.003830909032151541	-0.001257213186404896	0.03639920346528712	-0.0014031557277793	0.08110847364027229	-0.1259642604229372	-0.04028867974323119	-0.2473540021752063	0.2414648405872408	-0.002078263687322265	-0.02206023618519727	42.32089257145096	-10.95396538399284	6.489386087092953	-35.92574942244668	-525.4681506746125	-95.11048233160352	-41.41858395179307	-0.8532472833410195	-0.09286499743845518	-0.4724151478873272	4.960673365155086	-1.908621492911386	2.866595154048946	-2.208273063343933	7.714576700077433	7.71457670007713	0.3551486658131679	-0.06319798466472329	3.601649612068393	-0.1227280621454543	-6.791046031722144e-08	1.030231736265129e-07	1.357117278298419e-07	4.12159031678627e-08	-1.247278433690186e-07	-8.560408491947149e-08	-1.045191692982483e-08
0.02	-0.04600229681872029	0.07167801788183849	0.896111720561855	0.1965541722806851	-0.3196022793105519	-0.5370285216817932	-0.1383432211544121	0.07172672300314265	0.07172672300314108	-0.174456823264472	-0.1694008867217382	-0.06628270298154611	0.007401001332434647	-0.01795835486484488	-0.001901083127672623	-0.009586063978612539	0.1010445565422961	-0.03833631057034684	0.05685682082368316	-0.04323543263039302	0.1558166532229675	0.155816653222977	0.007508220198894262	-0.002286367352148659	0.07264371548224385	-0.002293226555062277	0.08199282399333536	-0.1372200998597681	-0.04075968706331341	-0.2517519630167378	0.2434997483882468	0.006121969375732655	-0.02224644941673363	43.29891789922711	-14.37011388965374	6.672543295380939	-38.24171804090506	-525.7855086470514	-102.6422231805511	-41.44032619427071	-0.9776930892827017	-0.02562533314315871	-0.4793790819797639	5.017967316362776	-1.878404464927732	2.721059374206869	-1.961269163813893	7.717637755291793	7.717637755292401	0.4005759116672133	-0.1937532314266513	3.677788953366602	-0.04721936891877444	-1.0306628009947e-07	1.300975016304413e-07	1.861276043756253e-07	7.382787576232608e-08	-2.453082712445603e-07	-1.140262071162919e-07	-1.601924999496509e-08
0.03	-0.04622599348333897	0.07165774634694026	0.895992578135726	0.1978048847741723	-0.3200777615191904	-0.5363229452372401	-0.1388761693665455	0.07366007062650647	0.07366007062652144	-0.1743637941627841	-0.1694286518551268	-0.06537717843361049	0.00737500128875616	-0.02672507308471612	-0.002172022789338359	-0.01423813900792295	0.1489024016008697	-0.05665753220872768	0.08414608444962864	-0.06316836991688096	0.2305066666174174	0.2305066666174281	0.01108538940634846	-0.003256315941572	0.1082726243945064	-0.002899737371732034	0.07770501125561534	-0.1290772437033187	-0.03967893053936935	-0.2445909453764383	0.2346981321318134	0.004263126597446612	-0.01891741553509117	40.3853564680141	-13.24136304532916	6.708116150302501	-35.85817483152162	-526.104731084338	-99.7458683206761	-41.47550509844983	-0.8177876417718337	-0.03063322600613163	-0.4575289263664987	4.640345408085101	-1.793628553417246	2.715980079468738	-1.98143002934122	7.292755633103829	7.292755633103594	0.3345012907016525	-0.04704360756758139	3.477148868070787	-0.06635090978630015	-1.278472309334112e-07	1.422805067035984e-07	2.271827786116965e-07	9.226012042786479e-08	-3.351481311671865e-07	-1.476916265475796e-07	-2.023104105343767e-08
0.04	-0.04653568262083307	0.07163420442675962	0.895827033516712	0.199528306179739	-0.3207333854522405	-0.5353478521118771	-0.1396028717551943	0.07632993288412783	0.07632993288412564	-0.1742353505958977	-0.1694658020613714	-0.06412102339496993	0.007343139342562365	-0.03515684944187612	-0.002555160184151687	-0.01886650255559363	0.1955863389586663	-0.07436465545205552	0.1107601569827874	-0.08198626793437053	0.3031195800751567	0.3031195800751661	0.01459111323048007	-0.004163381925692473	0.1427698136233574	-0.003465607058213276	0.07341719851773236	-0.1209343875469126	-0.03859817401549803	-0.2374299277362586	0.2258965158753058	0.002404283819074195	-0.01558838165348631	37.52001771977629	-12.1189553042371	6.74230226590264	-33.6811324250973	-525.7815679797918	-96.71017612909363	-41.52314487351693	-0.910704716740433	-0.04806487977270005	-0.4746367856518194	4.783185776207407	-1.755584785917135	2.586021155649516	-1.738261310014264	7.302217767949686	7.302217767949778	0.3862868350027004	-0.1811767103660927	3.451445016684283	-0.03909114288108404	-1.52414266943676e-07	1.54156474190554e-07	2.680449486764335e-07	1.103999995690958e-07	-4.243541649464538e-07	-1.814651552001964e-07	-2.441488279218513e-08
